<?xml version="1.0" encoding="utf-8"?>
<!-- Generator: Adobe Illustrator 21.0.2, SVG Export Plug-In . SVG Version: 6.00 Build 0)  -->
<svg version="1.1" id="图层_1" xmlns="http://www.w3.org/2000/svg" xmlns:xlink="http://www.w3.org/1999/xlink" x="0px" y="0px"
	 viewBox="0 0 50 50" style="enable-background:new 0 0 50 50;" xml:space="preserve">
<style type="text/css">
	.st0{fill:#CD2C31;}
</style>
<g>
	<path class="st0" d="M24.8,41.7c-8.3,0-15-6.7-15-15s6.7-15,15-15s15,6.7,15,15S33.1,41.7,24.8,41.7z M24.8,14.1
		c-6.9,0-12.5,5.6-12.5,12.5s5.6,12.5,12.5,12.5s12.5-5.6,12.5-12.5S31.7,14.1,24.8,14.1z"/>
</g>
<g>
	<g>
		<path class="st0" d="M22.8,21.7l1.3,7.8h1.6l1.3-7.8c0-0.1,0-0.4,0.1-0.6c0.1-0.8,0.1-1.3,0.1-1.7c0-1.9-0.8-2.8-2.3-2.8
			c-1.5,0-2.2,0.9-2.2,2.8c0,0.4,0,0.9,0.1,1.7C22.7,21.3,22.8,21.5,22.8,21.7z"/>
	</g>
	<g>
		<circle class="st0" cx="24.8" cy="33.4" r="2.4"/>
	</g>
</g>
</svg>
