<?xml version="1.0" encoding="utf-8"?>
<!-- Generator: Adobe Illustrator 21.0.2, SVG Export Plug-In . SVG Version: 6.00 Build 0)  -->
<svg version="1.1" id="图层_1" xmlns="http://www.w3.org/2000/svg" xmlns:xlink="http://www.w3.org/1999/xlink" x="0px" y="0px"
	 viewBox="0 0 50 50" style="enable-background:new 0 0 50 50;" xml:space="preserve">
<style type="text/css">
	.st0{fill:#717071;}
</style>
<path class="st0" d="M25.5,14c4.1,0,7.9,1.7,10.6,4.4c2.7,2.7,4.4,6.5,4.4,10.6c0,4.1-1.7,7.9-4.4,10.6c-2.7,2.7-6.5,4.4-10.6,4.4
	c-4.1,0-7.9-1.7-10.6-4.4c-2.7-2.7-4.4-6.5-4.4-10.6c0-4.1,1.7-7.9,4.4-10.6C17.6,15.7,21.4,14,25.5,14L25.5,14z M26.2,28.4
	L26.2,28.4h12c-0.2-3.2-1.6-6.1-3.7-8.3c-2.1-2.1-5.1-3.5-8.3-3.7V28.4L26.2,28.4z M24.9,16.4L24.9,16.4c-3.2,0.2-6.1,1.5-8.3,3.7
	c-2.3,2.3-3.7,5.5-3.7,9s1.4,6.7,3.7,9c2.3,2.3,5.5,3.7,9,3.7c3.5,0,6.7-1.4,9-3.7c2.1-2.1,3.5-5,3.7-8.3H25.6h0
	c-0.4,0-0.7-0.3-0.7-0.7V16.4L24.9,16.4z"/>
</svg>
