<?xml version="1.0" encoding="utf-8"?>
<!-- Generator: Adobe Illustrator 21.0.2, SVG Export Plug-In . SVG Version: 6.00 Build 0)  -->
<svg version="1.1" id="图层_1" xmlns="http://www.w3.org/2000/svg" xmlns:xlink="http://www.w3.org/1999/xlink" x="0px" y="0px"
	 viewBox="0 0 50 50" style="enable-background:new 0 0 50 50;" xml:space="preserve">
<style type="text/css">
	.st0{fill:#3383D9;}
</style>
<path class="st0" d="M26.2,13c2.9,0.2,5.6,1.4,7.5,3.4c1.9,1.9,3.2,4.6,3.4,7.5h2.7c0.4,0,0.7,0.3,0.7,0.7c0,0.4-0.3,0.7-0.7,0.7
	h-2.7c-0.2,2.9-1.4,5.5-3.4,7.5c-1.9,1.9-4.6,3.2-7.5,3.4v2.7c0,0.4-0.3,0.7-0.7,0.7c-0.4,0-0.7-0.3-0.7-0.7v-2.7
	c-2.9-0.2-5.6-1.4-7.5-3.4c-1.9-2-3.2-4.6-3.4-7.5h-2.7c-0.4,0-0.7-0.3-0.7-0.7c0-0.4,0.3-0.7,0.7-0.7h2.7c0.2-2.9,1.4-5.5,3.4-7.5
	c1.9-2,4.6-3.2,7.5-3.4v-2.7c0-0.4,0.3-0.7,0.7-0.7c0.4,0,0.7,0.3,0.7,0.7V13L26.2,13z M25.5,23.4L25.5,23.4c0.7,0,1.2,0.5,1.2,1.2
	c0,0.7-0.5,1.2-1.2,1.2c-0.7,0-1.2-0.5-1.2-1.2C24.3,23.9,24.9,23.4,25.5,23.4L25.5,23.4z M25.5,19L25.5,19c1.5,0,2.9,0.6,3.9,1.6
	c1,1,1.6,2.4,1.6,3.9c0,1.5-0.6,2.9-1.6,3.9v0c-1,1-2.4,1.6-3.9,1.6c-1.5,0-2.9-0.6-3.9-1.6v0c-1-1-1.6-2.4-1.6-3.9
	c0-1.5,0.6-2.9,1.6-3.9C22.6,19.7,24,19,25.5,19L25.5,19z M28.4,21.7L28.4,21.7c-0.7-0.8-1.8-1.2-2.9-1.2c-1.1,0-2.2,0.5-2.9,1.2
	c-0.7,0.7-1.2,1.8-1.2,2.9c0,1.1,0.5,2.2,1.2,2.9c0.7,0.7,1.8,1.2,2.9,1.2c1.1,0,2.2-0.4,2.9-1.2c0.7-0.8,1.2-1.8,1.2-2.9
	C29.6,23.4,29.2,22.4,28.4,21.7L28.4,21.7z M32,18.1L32,18.1c-1.7-1.7-4-2.7-6.5-2.7c-2.5,0-4.9,1-6.5,2.7c-1.7,1.7-2.7,4-2.7,6.5
	c0,2.5,1,4.8,2.7,6.5c1.7,1.7,4,2.7,6.5,2.7c2.6,0,4.8-1,6.5-2.7c1.7-1.7,2.7-4,2.7-6.5C34.7,22,33.7,19.7,32,18.1L32,18.1z"/>
</svg>
